<?xml version="1.0" encoding="iso-8859-1"?>
<!-- Generator: Adobe Illustrator 17.1.0, SVG Export Plug-In . SVG Version: 6.00 Build 0)  -->
<!DOCTYPE svg PUBLIC "-//W3C//DTD SVG 1.1//EN" "http://www.w3.org/Graphics/SVG/1.1/DTD/svg11.dtd">
<svg version="1.1" id="Layer_1" xmlns="http://www.w3.org/2000/svg" xmlns:xlink="http://www.w3.org/1999/xlink" x="0px" y="0px"
	 viewBox="0 0 800 800" style="enable-background:new 0 0 800 800;" xml:space="preserve">
<path d="M706.708,375.123l-82.39-171.836c-7.788-9.735-19.573-15.474-32.075-15.474h-26.439l-23.979,20.495h50.418
	c6.353,0,12.195,2.87,16.089,7.788l71.425,158.206H120.243l71.425-158.206c3.894-4.919,9.735-7.788,16.089-7.788h50.52
	l-23.979-20.495h-26.541c-12.502,0-24.287,5.739-32.075,15.474l-82.39,171.836c-8.506,10.76-15.576,30.947-15.576,44.679v328.96
	c0,28.283,22.954,51.238,51.238,51.238h542.094c28.283,0,51.238-22.954,51.238-51.238v-328.96
	C722.285,406.07,715.214,385.883,706.708,375.123z M558.529,564.41l31.87-55.132c3.177-5.431,11.067-5.431,14.244,0l31.87,55.132
	c3.177,5.533-0.82,12.4-7.173,12.4h-13.322v102.782c0,4.612-3.69,8.198-8.198,8.198h-20.598c-4.509,0-8.199-3.586-8.199-8.198
	V576.809h-13.322C559.349,576.809,555.352,569.943,558.529,564.41z M435.251,564.41l31.87-55.132c3.177-5.431,11.068-5.431,14.244,0
	l31.87,55.132c3.177,5.533-0.82,12.4-7.173,12.4H492.74v102.782c0,4.612-3.689,8.198-8.198,8.198h-20.598
	c-4.509,0-8.198-3.586-8.198-8.198V576.809h-13.322C436.071,576.809,432.075,569.943,435.251,564.41z M652.089,734.314
	c0,2.254-1.844,4.099-4.099,4.099H421.212c-2.255,0-4.099-1.844-4.099-4.099v-12.4c0-2.254,1.844-4.099,4.099-4.099H647.99
	c2.254,0,4.099,1.844,4.099,4.099V734.314z M485.039,108.65h98.289c9.523,0,13.897,11.856,6.654,18.041L406.638,283.248
	c-3.833,3.273-9.477,3.273-13.309-0.001L210.014,126.69c-7.241-6.184-2.868-18.04,6.655-18.04h98.285
	c5.66,0,10.248-4.588,10.248-10.248V10.248c0-5.66,4.588-10.248,10.248-10.248h129.096c5.66,0,10.248,4.588,10.248,10.248v88.155
	C474.792,104.062,479.38,108.65,485.039,108.65z"/>
</svg>
